# xmcd
# 
# Track frame offsets:
#	150
#	12777
#	30522
#	43112
#	59267
#	74050
#	88235
#	104417
#	116492
#	126027
#	138230
#	150355
#	164727
#	179720
#
# Disc length: 2537 seconds
#
# Revision: 1
# Processed by: cddbd v1.4PL0 Copyright (c) Steve Scherf et al.
# Submitted via: Audio-CD-Archiv 2.10.446
#
DISCID=c309e70e
DTITLE=Johnny Otis and Delmar Evens - Great Rhythm and Blues
DYEAR=1900
DGENRE=blues
TTITLE0=Willie And The Hand Jive
TTITLE1=Barrel-House Blues
TTITLE2=Please Don't Leave Me
TTITLE3=Bad Luck Shadow
TTITLE4=Fanny Mae
TTITLE5=Signifying Monkey
TTITLE6=Harlem Nocturne
TTITLE7=Stack-A-Lee
TTITLE8=Don't Start Me To Talkin'
TTITLE9=Baby, I've Got News For You
TTITLE10=Country Girl
TTITLE11=Bye Bye Baby
TTITLE12=Jaws
TTITLE13=Good To The Last Drop
EXTD=
EXTT0=
EXTT1=
EXTT2=
EXTT3=
EXTT4=
EXTT5=
EXTT6=
EXTT7=
EXTT8=
EXTT9=
EXTT10=
EXTT11=
EXTT12=
EXTT13=
PLAYORDER=
